<?xml version="1.0" encoding="utf-8"?>
<!-- Generator: Adobe Illustrator 22.1.0, SVG Export Plug-In . SVG Version: 6.00 Build 0)  -->
<svg version="1.1" id="Layer_1" xmlns="http://www.w3.org/2000/svg" xmlns:xlink="http://www.w3.org/1999/xlink" x="0px" y="0px"
	 viewBox="0 0 19.3 20" style="enable-background:new 0 0 19.3 20;" xml:space="preserve">
<style type="text/css">
	.st0{fill:#FFFFFF;}
	.st1{fill:#682A7A;}
</style>
<g>
	<path class="st0" d="M14.3,20l-7.4-7.2l-4.4,3.3L0,14.9l0-9.8l2.4-1.2l4.4,3.4L14.3,0l5.1,2l0,15.9L14.3,20"/>
	<path class="st1" d="M18.1,2.9l-3.5-1.4L6.9,8.9L2.3,5.4l-1,0.5l0,8.2l1,0.5l4.6-3.5l7.6,7.4l3.5-1.4L18.1,2.9L18.1,2.9z M2.8,11.9
		l0-3.9L4.9,10L2.8,11.9L2.8,11.9z M9.7,10L14,6.8l0,6.5L9.7,10L9.7,10z"/>
</g>
</svg>
